<svg width="379" height="399" viewBox="0 0 379 399" fill="none" xmlns="http://www.w3.org/2000/svg">
<g clip-path="url(#clip0_528_4236)">
<path d="M325.611 156.441L240.245 162.375L224.761 223.747L228.057 265.974L256.993 302.524C278.852 307.588 302.334 304.071 321.932 292.063C319.785 291.846 316.962 292.089 313.755 293.7C334.196 257.074 302.551 264.338 302.551 264.338L331.424 166.966C332.753 162.503 330.21 157.81 325.752 156.48C325.701 156.467 325.662 156.454 325.611 156.441Z" fill="#8B6BDC"/>
<path d="M171.653 359.356C247.304 359.356 308.632 353.046 308.632 345.263C308.632 337.48 247.304 331.17 171.653 331.17C96.0006 331.17 34.6727 337.48 34.6727 345.263C34.6727 353.046 96.0006 359.356 171.653 359.356Z" fill="#00B2FF" fill-opacity="0.1"/>
<path d="M257.671 255.232C257.364 254.26 257.019 253.275 256.406 252.444C256.521 254.452 256.367 256.357 256.201 258.25C256.035 260.143 255.793 262.036 255.524 263.928C255.282 265.821 254.962 267.714 254.719 269.645C254.566 270.604 254.438 271.576 254.349 272.548C254.221 273.545 254.132 274.543 254.106 275.54C254.643 274.696 255.141 273.814 255.588 272.906C256.01 271.998 256.38 271.064 256.725 270.131C257.377 268.238 257.849 266.281 258.13 264.286C258.424 262.279 258.475 260.245 258.271 258.237C258.143 257.227 257.952 256.217 257.671 255.232Z" fill="#A497DC"/>
<path d="M240.717 294.288C239.81 294.864 238.852 295.273 237.907 295.426C236.961 295.58 236.029 295.413 235.096 294.979C234.125 294.454 233.256 293.764 232.528 292.932C231.723 292.088 231.033 291.104 230.356 290.068C230.522 291.321 230.893 292.536 231.481 293.661C232.081 294.864 232.95 295.912 234.023 296.718C235.224 297.575 236.68 297.997 238.162 297.882C239.631 297.767 240.96 297.204 242.097 296.5C244.358 295.055 246.045 293.112 247.463 291.065C248.855 289.019 249.98 286.794 250.797 284.454C249.06 286.231 247.488 288.06 245.866 289.774C244.243 291.487 242.544 293.124 240.717 294.288Z" fill="#A497DC"/>
<path d="M79.3744 282.919L79.0551 282.408C78.9529 282.229 78.8762 282.037 78.7868 281.871C78.6079 281.512 78.4291 281.154 78.2374 280.809C78.0713 280.451 77.9436 280.08 77.7775 279.709L77.5475 279.172L77.3815 278.609C77.2793 278.239 77.1132 277.868 77.0365 277.497C76.6405 275.975 76.4488 274.415 76.4744 272.842C76.4872 271.205 76.6916 269.568 77.0748 267.969C75.9506 269.287 75.2735 270.962 74.9413 272.688C74.6092 274.453 74.6858 276.256 75.133 277.983C75.2352 278.418 75.414 278.827 75.5418 279.249L75.7717 279.875L76.0656 280.464C76.2828 280.847 76.4616 281.257 76.7043 281.628C76.9471 281.998 77.2154 282.344 77.4709 282.702C77.5986 282.881 77.7264 283.06 77.8669 283.226L78.3269 283.699L79.2467 284.607C79.911 285.157 80.6137 285.656 81.3419 286.103C80.9203 285.336 80.4093 284.684 79.9749 283.981L79.3744 282.919Z" fill="#A497DC"/>
<path d="M110.943 285.976C110.457 288.124 109.448 290.03 107.902 291.475C106.356 292.92 104.376 293.917 102.268 294.621C100.16 295.324 97.8863 295.733 95.5483 296.015C97.8863 296.526 100.301 296.564 102.652 296.104C105.015 295.669 107.404 294.672 109.257 292.907C110.189 292.025 110.943 290.989 111.492 289.838C112.029 288.7 112.361 287.485 112.463 286.231C112.68 283.827 112.297 281.41 111.377 279.185C111.454 281.538 111.416 283.84 110.943 285.976Z" fill="#A497DC"/>
<path d="M319.824 148.244L230.931 123.511C226.077 122.155 221.056 125.007 219.714 129.854L168.42 314.583C167.079 319.443 169.915 324.469 174.757 325.812L263.649 350.545C268.504 351.9 273.525 349.048 274.866 344.201L326.16 159.472C327.515 154.625 324.678 149.599 319.824 148.244Z" fill="#ECF9FE"/>
<path d="M317.729 147.668L230.842 123.485C226.038 122.155 221.068 124.956 219.74 129.764L168.395 314.673C167.066 319.481 169.864 324.456 174.668 325.786L261.567 349.969C266.371 351.299 271.34 348.498 272.669 343.69L324.014 158.782C325.343 153.973 322.532 148.998 317.729 147.668Z" fill="#C4E9F9"/>
<path d="M307.93 156.876L234.483 136.44C230.688 135.379 226.741 137.604 225.693 141.415L183.955 291.705C182.895 295.503 185.118 299.455 188.925 300.503L262.372 320.939C266.166 322.001 270.114 319.775 271.162 315.965L312.899 165.675C313.947 161.876 311.724 157.938 307.93 156.876Z" fill="#0066BA"/>
<path d="M306.128 158.142L233.895 138.039C230.165 137.003 226.306 139.19 225.272 142.924L184.428 290.017C183.393 293.751 185.565 297.613 189.296 298.649L261.529 318.752C265.259 319.788 269.117 317.601 270.152 313.88L310.996 166.787C312.043 163.053 309.859 159.191 306.128 158.142Z" fill="#ECF9FE"/>
<path d="M225.246 143.026L213.301 186.034L277.652 286.858L294.809 225.09L233.908 138.051C230.139 137.067 226.281 139.279 225.246 143.026Z" fill="white"/>
<path d="M282.557 142.016L263.867 136.811C262.921 136.542 261.95 137.105 261.682 138.051C261.414 138.998 261.976 139.97 262.921 140.238L281.612 145.443C282.557 145.712 283.528 145.149 283.797 144.215C284.065 143.256 283.503 142.284 282.557 142.016Z" fill="#0066BA"/>
<path d="M223.943 329.034C226.977 329.034 229.437 326.572 229.437 323.535C229.437 320.498 226.977 318.036 223.943 318.036C220.909 318.036 218.45 320.498 218.45 323.535C218.45 326.572 220.909 329.034 223.943 329.034Z" fill="#0066BA"/>
<path d="M118.327 141.351C117.075 136.849 112.412 134.215 107.915 135.468L25.436 158.423C20.9389 159.677 18.3072 164.345 19.5592 168.846L67.1482 340.25C68.4002 344.751 73.0633 347.386 77.5603 346.145L160.04 323.19C164.536 321.937 167.168 317.269 165.916 312.767L118.327 141.351Z" fill="#ECF9FE"/>
<path d="M118.302 141.274C117.062 136.811 112.45 134.202 108.005 135.443L27.3906 157.874C22.9319 159.114 20.3257 163.731 21.5649 168.181L69.2051 339.751C70.4443 344.214 75.0563 346.823 79.515 345.583L160.129 323.152C164.588 321.911 167.194 317.294 165.955 312.831L118.302 141.274Z" fill="#C4E9F9"/>
<path d="M112.77 152.08C111.786 148.551 108.132 146.479 104.606 147.464L36.4613 166.429C32.9352 167.414 30.8783 171.058 31.8493 174.588L70.5721 314.033C71.5558 317.563 75.1968 319.622 78.7229 318.65L146.868 299.685C150.394 298.7 152.464 295.043 151.48 291.513L112.77 152.08Z" fill="#0066BA"/>
<path d="M113.166 153.474C112.208 150.009 108.618 147.988 105.156 148.947L38.1349 167.593C34.6727 168.552 32.6542 172.145 33.6123 175.611L71.5047 312.09C72.4629 315.555 76.0528 317.576 79.515 316.617L146.536 297.971C149.998 297.012 152.016 293.418 151.058 289.953L113.166 153.474Z" fill="#ECF9FE"/>
<path d="M105.156 148.96L48.6492 229.719L64.5675 287.037L124.281 193.477L113.191 153.564C112.22 150.085 108.643 148.039 105.156 148.96Z" fill="white"/>
<path d="M79.3745 148.96C79.1317 148.078 78.2247 147.566 77.3559 147.809L60.0195 152.63C59.1379 152.873 58.6269 153.781 58.8697 154.651C59.1124 155.533 60.0195 156.045 60.8882 155.802L78.2247 150.981C79.1062 150.75 79.6172 149.842 79.3745 148.96Z" fill="#0066BA"/>
<path d="M111.939 316.54C109.461 317.883 108.554 320.99 109.895 323.471C111.237 325.952 114.341 326.86 116.82 325.517C119.298 324.175 120.205 321.067 118.864 318.586C117.51 316.118 114.418 315.197 111.939 316.54Z" fill="#A497DC"/>
<path d="M224.761 264.338L232.567 288.942C233.231 291.053 235.045 292.587 237.23 292.894C239.299 293.188 241.356 292.344 242.621 290.682C250.401 280.425 254.758 267.969 255.077 255.104V254.951L250.465 248.518L224.761 264.338Z" fill="#091A5A"/>
<path d="M224.761 264.337L227.392 272.637C228.696 273.494 231.455 274.683 234.981 272.752C239.925 270.028 233.499 278.443 239.683 286.615C240.871 288.188 242.238 288.981 243.681 289.237C250.81 279.249 254.783 267.356 255.09 255.091V254.938L250.478 248.505L224.761 264.337Z" fill="#000045"/>
<path d="M255.907 218.798L245.048 198.682C243.592 195.983 240.922 194.129 237.881 193.72L225.591 192.057L213.224 200.472L203.119 208.951C199.733 211.79 197.383 215.69 196.424 220.013L192.604 237.431L169.366 228.939L166.402 236.945L187.507 252.291C189.845 253.992 192.707 254.823 195.594 254.644C200.743 254.311 205.15 250.833 206.67 245.897L211.563 230.013L220.787 258.058L220.698 258.314C219.97 260.322 220.634 262.56 222.346 263.839L226.562 266.998C230.344 269.837 235.339 270.438 239.695 268.583C242.404 267.42 244.652 265.399 246.083 262.816L252.445 251.293L258.015 249.695C261.72 248.633 264.608 245.73 265.655 242.022C266.473 239.093 266.064 235.96 264.518 233.338L255.907 218.798Z" fill="#0E2883"/>
<path d="M234.1 210.588C234.01 210.409 233.959 210.319 233.959 210.319L234.1 210.588Z" fill="#220073"/>
<path d="M238.597 228.044C236.949 234.31 219.804 229.694 217.172 224.079C215.064 219.603 208.152 210.524 205.431 207.02L203.119 208.963C203.119 208.963 211.244 233.313 203.987 242.226C196.782 251.076 177.235 241.369 167.603 233.492L166.402 236.957L187.507 252.304C189.845 254.004 192.707 254.836 195.594 254.657C200.743 254.324 205.15 250.846 206.67 245.909L211.563 230.026L214.86 240.027L215.192 239.592L231.174 240.091L245.023 234.31L246.339 233.492L234.1 210.6C235.032 212.34 240.104 222.327 238.597 228.044Z" fill="#091A5A"/>
<path d="M227.98 178.501L220.161 170.573C217.555 167.478 213.735 165.675 209.685 165.623L208.638 165.611C205.469 165.572 202.378 166.608 199.887 168.552C198.762 169.434 197.957 170.649 197.574 172.03L193.844 185.816C193.026 188.847 193.486 192.07 195.121 194.755L197.178 198.119C198.558 200.382 200.691 202.083 203.195 202.94L210.656 205.485L209.251 206.278C209.187 206.303 209.136 206.355 209.072 206.38L210.184 206.393L228.018 198.234L230.471 192.952C232.745 188.067 231.749 182.312 227.98 178.501Z" fill="#0E2883"/>
<path d="M196.603 191.571C201.407 202.467 214.745 202.493 214.745 202.493L215.204 188.272L201.931 174.115C201.931 174.115 191.812 180.675 196.603 191.571Z" fill="#220073"/>
<path d="M214.745 202.505L220.404 188.527L211.691 195.254L214.745 202.505Z" fill="#FFB5A7"/>
<path d="M213.314 199.116C216.763 196.252 220.404 188.527 220.404 188.527L211.704 195.267L213.314 199.116Z" fill="#FF8492"/>
<path d="M203.425 172.99C202.774 173.092 202.212 173.514 201.931 174.128L199.401 179.767C198.29 182.236 198.06 185.011 198.749 187.62L199.657 191.098C200.436 194.078 202.684 196.444 205.623 197.364L205.687 197.39C207.667 198.017 209.788 198.017 211.768 197.415C214.042 196.712 215.997 195.241 217.3 193.259L220.404 188.528L205.086 173.527C204.652 173.092 204.039 172.9 203.425 172.99Z" fill="#FFB5A7"/>
<path d="M205.214 187.453L205.24 187.44C206.044 186.827 206.44 185.829 206.262 184.832L205.942 182.965C205.904 182.734 205.687 182.581 205.457 182.619C205.227 182.658 205.073 182.875 205.112 183.105L205.431 184.972C205.546 185.65 205.278 186.341 204.729 186.763L204.703 186.775C204.141 187.197 204.026 188.003 204.46 188.566C204.639 188.796 204.882 188.962 205.163 189.039L205.572 189.141C205.802 189.205 206.032 189.077 206.096 188.847C206.159 188.617 206.032 188.387 205.802 188.323C205.789 188.323 205.776 188.323 205.776 188.31L205.367 188.208C205.137 188.157 204.997 187.926 205.048 187.683C205.073 187.607 205.125 187.517 205.214 187.453Z" fill="#FF8492"/>
<path d="M210.695 179.614C209.251 179.755 208.012 180.356 207.207 181.2C206.913 181.519 206.428 181.532 206.108 181.238C206.095 181.225 206.083 181.212 206.07 181.2C205.15 180.215 203.54 179.652 201.79 179.819C199.158 180.074 197.178 181.877 197.37 183.847C197.561 185.816 199.848 187.21 202.48 186.967C203.643 186.878 204.741 186.43 205.636 185.688C206.147 185.241 206.913 185.241 207.424 185.688C208.37 186.481 209.813 186.916 211.372 186.763C214.004 186.507 215.984 184.704 215.792 182.734C215.601 180.765 213.326 179.371 210.695 179.614Z" fill="#000045"/>
<path d="M209.315 184.205C210.631 185.318 212.126 184.96 212.688 183.399L213.173 182.018L208.676 183.642L209.315 184.205Z" fill="white"/>
<path d="M199.733 182.76C199.912 184.678 201.266 185.407 202.787 184.397L204.128 183.502L199.644 181.801L199.733 182.76Z" fill="white"/>
<path d="M212.534 189.499C212.356 189.359 212.087 189.384 211.947 189.576C209.443 192.824 203.719 191.597 203.655 191.584C203.425 191.533 203.208 191.686 203.157 191.916C203.119 192.134 203.247 192.351 203.477 192.415C204.371 192.594 205.278 192.684 206.198 192.684C206.44 192.684 206.683 192.671 206.939 192.658C209.481 192.518 211.436 191.635 212.624 190.1C212.764 189.909 212.726 189.64 212.534 189.499Z" fill="#FF404F"/>
<path d="M213.058 189.602L211.934 189.026C211.717 188.924 211.474 189.013 211.372 189.231C211.282 189.435 211.359 189.678 211.551 189.781L212.675 190.356C212.739 190.382 212.803 190.407 212.867 190.407C213.096 190.407 213.288 190.216 213.288 189.985C213.288 189.819 213.199 189.678 213.058 189.602Z" fill="#FF404F"/>
<path d="M208.536 194.167L206.159 193.502C205.929 193.451 205.699 193.592 205.648 193.809C205.597 194.027 205.725 194.244 205.929 194.308L208.306 194.973C208.344 194.986 208.382 194.986 208.421 194.986C208.651 194.986 208.842 194.794 208.842 194.564C208.842 194.385 208.715 194.218 208.536 194.167Z" fill="#FF8492"/>
<path d="M230.51 182.159C229.973 180.995 229.258 179.921 228.402 178.962C229.283 181.609 229.449 185.573 226.498 190.753C221.362 199.756 224.301 199.065 228.018 198.221L230.471 192.94C232.068 189.525 232.081 185.586 230.51 182.159Z" fill="#220073"/>
<path d="M56.8128 248.493L37.3683 231.497L36.5507 229.438C35.1837 226.023 32.4242 223.363 28.9748 222.123L27.9783 221.765L26.969 221.969C26.5602 222.059 26.2919 222.468 26.3813 222.877C26.4197 223.031 26.4963 223.171 26.5985 223.274L27.8122 224.399L22.817 223.146C22.6253 223.095 22.4337 223.095 22.2421 223.133L17.1957 224.233C16.723 224.335 16.3525 224.693 16.2375 225.154L15.9054 226.484C15.7393 227.149 16.1481 227.839 16.8124 228.005L21.7821 229.284C21.9482 229.323 22.1015 229.399 22.2421 229.515L32.5775 237.597L53.5294 262.816C55.1903 264.811 57.656 265.936 60.2494 265.885C62.7662 265.834 65.1425 264.67 66.7139 262.701L74.277 253.263L64.0565 241.881L56.8128 248.493Z" fill="#FFB5A7"/>
<path d="M60.9265 244.758C63.0984 247.15 68.8857 253.646 69.0135 255.258C69.1795 257.24 63.7371 267.957 57.311 262.688C50.8849 257.419 32.5903 237.61 32.5903 237.61L53.5422 262.828C56.5445 266.448 61.9102 266.946 65.5257 263.941C65.9601 263.57 66.3689 263.161 66.7266 262.713L74.2898 253.275L64.0693 241.894L60.9265 244.758Z" fill="#FF9595"/>
<path d="M26.2791 224.041C25.7298 224.079 25.2315 224.322 24.7716 224.578C24.3245 224.847 23.9156 225.192 23.5707 225.588C23.213 225.972 22.9319 226.407 22.7147 226.88C23.5451 226.266 24.2861 225.627 25.1166 225.141C25.5126 224.885 25.947 224.68 26.3941 224.54C26.8668 224.399 27.3523 224.361 27.825 224.412C27.365 224.105 26.8157 223.977 26.2791 224.041Z" fill="#FF8492"/>
<path d="M140.046 238.594L137.58 233.121C137.312 232.52 136.622 232.251 136.034 232.52C135.485 232.763 135.217 233.364 135.383 233.939L137.248 240.257L132.304 251.14L124.894 241.075L115.504 252.125L126.299 267.905C127.385 269.491 129.174 270.438 131.09 270.438C133.671 270.438 135.945 268.737 136.673 266.256L142.537 246.191L148.478 243.147C148.797 242.981 149.116 242.789 149.397 242.559L153.038 239.758C154.52 238.62 155.389 236.855 155.389 234.975L144.351 239.924L140.046 238.594Z" fill="#FFB5A7"/>
<path d="M140.71 244.208C136.75 245.692 135.434 264.338 132.968 267.138C130.502 269.939 120.933 262.522 119.95 254.606C119.247 249.03 124.613 246.229 127.832 245.065L124.894 241.075L115.504 252.125L126.299 267.905C128.113 270.553 131.729 271.23 134.373 269.415C135.485 268.66 136.29 267.535 136.66 266.256L142.524 246.191L148.465 243.147C148.784 242.981 149.104 242.789 149.385 242.559L153.026 239.758C154.508 238.62 155.376 236.855 155.376 234.975L152.361 236.331C150.803 243.032 144.619 242.738 140.71 244.208Z" fill="#FF9595"/>
<path d="M59.5723 250.245C59.189 249.874 58.7674 249.528 58.3203 249.234C57.8604 248.915 57.3493 248.659 56.8128 248.493C57.0044 249.017 57.2727 249.516 57.6049 249.976C57.9242 250.411 58.2692 250.82 58.6652 251.191C59.0485 251.562 59.4701 251.907 59.9172 252.201C60.3772 252.521 60.8882 252.777 61.4248 252.943C61.2331 252.419 60.9648 251.907 60.6327 251.46C60.3133 251.025 59.9556 250.628 59.5723 250.245Z" fill="#FF8492"/>
<path d="M130.502 253.275C129.966 254.017 129.468 254.797 129.02 255.603C128.56 256.396 128.152 257.227 127.781 258.058C127.398 258.915 127.091 259.798 126.861 260.706C127.526 260.053 128.126 259.337 128.663 258.57C129.199 257.828 129.698 257.048 130.145 256.242C130.605 255.45 131.013 254.618 131.384 253.774C131.767 252.917 132.074 252.035 132.304 251.127C131.639 251.792 131.026 252.508 130.502 253.275Z" fill="#FF8492"/>
<path d="M108.068 267.957L80.8692 265.642C78.4163 272.599 79.8344 280.323 84.5741 285.963L84.9191 286.372C86.5927 288.354 88.7006 289.927 91.0897 290.95C95.395 292.792 100.275 292.741 104.53 290.81C107.072 289.659 108.656 287.088 108.579 284.3L108.068 267.957Z" fill="#FF3331"/>
<path d="M90.9364 278.187C97.9118 279.927 104.095 278.814 108.375 277.382L108.081 267.957L80.882 265.642C78.4291 272.599 79.8472 280.323 84.5869 285.963L84.9318 286.372C89.7355 292.076 97.7457 293.892 104.542 290.81C106.701 289.825 108.209 287.792 108.528 285.438C106.408 285.605 104.338 286.219 102.473 287.242C88.2918 295.017 77.752 274.888 90.9364 278.187Z" fill="#D61013"/>
<path d="M103.201 218.082L99.496 217.148L96.2638 217.084C92.7377 217.02 89.2244 217.583 85.89 218.747L85.7239 218.798C80.1921 220.729 75.3629 224.258 71.8241 228.939L61.9102 242.06L74.4303 255.091L81.6868 247.009L79.8855 266.806L87.1676 272.612C89.7866 274.709 93.121 275.706 96.4554 275.4L99.7132 275.093C103.444 274.747 106.855 272.803 109.052 269.773L111.518 247.994L116.794 254.925L123.412 245.449C124.574 243.786 126.248 242.533 128.164 241.894L119.094 229.029C115.274 223.606 109.64 219.719 103.201 218.082Z" fill="#FF974F"/>
<path d="M109.883 253.94C107.57 263.34 97.8479 271.269 87.7936 268.622C77.7392 265.974 84.4975 238.428 83.0155 234.809C81.5335 231.19 80.5498 242.738 74.9413 247.853C69.6522 252.687 65.3852 239.566 64.938 238.096L61.923 242.086L74.4431 255.117L81.6996 247.035L79.8855 266.831L87.1676 272.637C89.7866 274.735 93.121 275.732 96.4554 275.425L99.7132 275.118C103.444 274.773 106.855 272.829 109.052 269.798L111.518 248.019L116.794 254.951L120.793 249.222C120.678 248.761 120.55 248.314 120.422 247.853C115.657 231.663 112.195 244.541 109.883 253.94Z" fill="#FF8329"/>
<path d="M89.4927 185.637C82.3256 187.492 86.7716 197.147 86.7716 197.147C86.7716 197.147 109.883 194.052 111.492 193.438C113.102 192.824 114.086 186.379 110.01 181.929C105.935 177.478 96.6598 183.783 89.4927 185.637Z" fill="#432C89"/>
<path d="M111.709 192.824C103.508 183.924 95.1395 190.548 95.1395 190.548L89.4927 199.564L94.8712 210.536L93.6703 214.079C92.9293 216.24 93.4148 218.632 94.9351 220.345L95.5483 221.036C96.2382 221.816 97.2603 222.2 98.2951 222.084C99.3682 221.957 100.275 221.202 100.595 220.166L102.192 214.923C107.685 216.355 110.853 214.181 112.642 211.649C114.341 209.258 114.865 206.214 114.252 203.337C113.549 200.076 112.412 194.947 111.709 192.824Z" fill="#FFB5A7"/>
<path d="M85.1746 197.607C84.6891 199.833 85.3918 202.147 87.0143 203.746L90.3487 207.032C90.3487 207.032 90.9236 205.984 92.5461 200.868C98.8445 197.057 94.884 187.914 94.884 187.914C88.5346 187.415 86.0944 193.451 85.1746 197.607Z" fill="#432C89"/>
<path d="M89.7738 198.349C87.8702 200.344 86.2477 199.41 85.1107 197.991C84.7785 200.101 85.4812 202.25 87.0015 203.746L90.3359 207.032C90.3359 207.032 90.9108 205.984 92.5333 200.868C96.9792 198.183 96.3149 192.85 95.5355 189.934C91.8306 188.707 93.1465 194.819 89.7738 198.349Z" fill="#220073"/>
<path d="M92.0734 202.211C90.5275 201.917 89.0456 202.94 88.7517 204.487C88.6623 204.973 88.7006 205.472 88.8539 205.933C89.5055 207.838 91.0002 209.334 92.9166 209.974L95.3823 210.792L93.8109 202.544L92.0734 202.211Z" fill="#FFB5A7"/>
<path d="M100.927 199.896C100.531 200.012 100.378 200.664 100.582 201.367C100.786 202.07 101.259 202.531 101.655 202.416C102.051 202.301 102.204 201.648 102 200.945C101.796 200.242 101.323 199.781 100.927 199.896Z" fill="#432C89"/>
<path d="M108.605 197.671C108.209 197.786 108.056 198.439 108.26 199.142C108.464 199.845 108.937 200.306 109.333 200.191C109.729 200.075 109.883 199.423 109.678 198.72C109.474 198.017 109.001 197.556 108.605 197.671Z" fill="#432C89"/>
<path d="M107.161 203.247L106.97 203.119C106.612 202.863 106.344 202.505 106.216 202.083L105.334 199.219C105.258 198.988 105.028 198.873 104.798 198.937C104.568 199.014 104.453 199.244 104.517 199.474L105.398 202.339C105.59 202.94 105.96 203.464 106.471 203.823L106.663 203.95C106.842 204.078 106.944 204.296 106.931 204.513C106.931 204.705 106.829 204.871 106.663 204.961L106.65 204.973C106.446 205.076 106.356 205.332 106.471 205.549C106.574 205.754 106.829 205.843 107.046 205.728C107.059 205.728 107.059 205.715 107.072 205.715L107.085 205.702C107.494 205.459 107.762 205.025 107.775 204.551C107.826 204.027 107.583 203.541 107.161 203.247Z" fill="#FF8492"/>
<path d="M108.784 207.071C108.592 206.93 108.337 206.968 108.196 207.16C107.557 208.017 106.88 208.49 106.19 208.554C105.679 208.593 105.156 208.439 104.76 208.119C104.581 207.966 104.312 207.979 104.159 208.158C104.006 208.337 104.019 208.605 104.197 208.759C104.708 209.181 105.347 209.411 105.999 209.411C106.088 209.411 106.178 209.411 106.267 209.398C107.212 209.296 108.094 208.721 108.873 207.659C109.001 207.493 108.976 207.224 108.784 207.071C108.784 207.084 108.784 207.084 108.784 207.071Z" fill="#FF404F"/>
<path d="M101.157 194.986C99.7898 195.241 98.8444 195.804 98.3334 196.687C97.6435 197.863 98.0651 199.116 98.0907 199.168C98.1801 199.423 98.4229 199.602 98.7039 199.602C98.7806 199.602 98.8444 199.59 98.9083 199.564C99.2533 199.449 99.4321 199.078 99.3171 198.745C99.3171 198.745 99.0744 197.978 99.4577 197.326C99.7643 196.802 100.416 196.444 101.387 196.265C101.732 196.162 101.936 195.804 101.834 195.459C101.757 195.152 101.476 194.96 101.157 194.986Z" fill="#432C89"/>
<path d="M108.707 193.119C107.11 192.671 105.462 193.63 105.386 193.668C105.066 193.835 104.951 194.231 105.117 194.551C105.283 194.871 105.679 194.986 105.999 194.819C106.012 194.807 106.024 194.807 106.05 194.794C106.063 194.794 107.302 194.078 108.35 194.385C108.822 194.513 109.193 194.845 109.474 195.382C109.589 195.6 109.806 195.727 110.049 195.727C110.406 195.727 110.7 195.433 110.7 195.075C110.7 194.973 110.675 194.871 110.624 194.768C110.176 193.899 109.538 193.349 108.707 193.119Z" fill="#432C89"/>
<path d="M106.459 210.217L105.322 210.882C105.117 210.997 105.053 211.265 105.168 211.457C105.245 211.585 105.386 211.675 105.539 211.675C105.616 211.675 105.692 211.649 105.756 211.623L106.893 210.958C107.097 210.831 107.149 210.575 107.021 210.37C106.893 210.178 106.65 210.114 106.459 210.217Z" fill="#FF8492"/>
<path d="M94.8201 207.454L91.2174 204.181C92.5716 208.439 94.8201 207.454 94.8201 207.454Z" fill="#FF8492"/>
<path d="M102.166 215.281V214.91L97.848 212.212C97.8607 212.212 99.9815 215.358 102.166 215.281Z" fill="#FF8492"/>
<path d="M82.5556 237.047C82.3128 238.134 82.1084 239.221 81.9551 240.321C81.8018 241.421 81.6996 242.533 81.6485 243.646C81.5846 244.771 81.5974 245.897 81.6996 247.009C82.0956 245.96 82.415 244.873 82.6578 243.774C82.9005 242.687 83.1049 241.587 83.2582 240.487C83.4115 239.387 83.5138 238.287 83.5649 237.175C83.6415 236.049 83.616 234.924 83.5137 233.811C83.1177 234.86 82.7983 235.947 82.5556 237.047Z" fill="#FF5E27"/>
<path d="M113.549 234.016L113.524 234.093C113.204 235.231 112.91 236.369 112.68 237.507C112.45 238.645 112.233 239.809 112.054 240.96C111.876 242.111 111.748 243.288 111.646 244.451C111.543 245.628 111.505 246.817 111.531 247.994C111.939 246.881 112.284 245.756 112.565 244.605C112.847 243.467 113.102 242.316 113.319 241.165C113.536 240.014 113.715 238.85 113.843 237.686C113.996 236.561 114.086 235.41 114.15 234.272L114.022 234.387L114.15 234.169C114.15 234.195 114.15 234.233 114.15 234.259C114.61 233.837 115.057 233.415 115.491 232.955C114.852 233.223 114.265 233.53 113.664 233.85C113.6 233.901 113.562 233.952 113.549 234.016Z" fill="#FF5E27"/>
<path d="M114.022 234.4L114.15 234.285C114.15 234.259 114.15 234.221 114.15 234.195L114.022 234.4Z" fill="#FF5E27"/>
<path d="M227.712 249.081L228.095 248.365L227.277 248.275L227.712 249.081Z" fill="#000045"/>
<path d="M239.874 249.708C235.952 249.234 232.03 248.8 228.108 248.365L227.725 249.081L227.29 248.275L228.108 248.365L229.564 245.628C229.603 245.551 229.628 245.462 229.628 245.359V245.347L229.666 240.986L229.283 241.139L229.666 240.564V240.986L237.945 237.622L246.581 234.054C246.607 234.042 246.62 234.029 246.645 234.029C246.952 233.863 247.054 233.479 246.888 233.185C244.052 228.082 241.19 222.992 238.303 217.915C236.859 215.383 235.364 212.838 233.959 210.332C232.669 207.774 232.337 204.743 232.963 201.891C232.107 204.756 232.285 207.825 233.486 210.562C234.112 211.918 234.815 213.171 235.479 214.488L237.511 218.363C240.13 223.325 242.774 228.261 245.444 233.198L246.096 232.929L245.789 233.811L245.457 233.198L237.447 236.459L228.811 240.027C228.581 240.129 228.427 240.346 228.427 240.602L228.466 245.244L228.529 245.116L228.466 245.385V245.244L226.754 248.595L226.741 248.608C226.715 248.672 226.69 248.736 226.69 248.812C226.664 249.119 226.881 249.375 227.188 249.413C231.391 249.771 235.607 250.13 239.81 250.449L246.134 250.91C248.242 251.063 250.35 251.204 252.458 251.332C250.363 251.038 248.268 250.782 246.173 250.513L239.874 249.708Z" fill="#000045"/>
<path d="M229.283 241.152L229.666 240.999V240.577L229.283 241.152Z" fill="#000045"/>
<path d="M246.109 232.903L245.457 233.172L245.789 233.786L246.109 232.903Z" fill="#000045"/>
<path d="M228.517 245.091L228.453 245.219V245.359L228.517 245.091Z" fill="#000045"/>
<path d="M255.729 230.525C253.518 230.653 251.347 231.151 249.29 231.983C248.268 232.392 247.284 232.903 246.339 233.492C247.45 233.402 248.536 233.185 249.584 232.955L252.726 232.277L255.856 231.548C256.904 231.292 257.952 231.049 259.025 230.691C257.939 230.512 256.827 230.461 255.729 230.525Z" fill="#000045"/>
<path d="M195.057 198.63L240.935 282.484L243.272 281.205L197.395 197.352L195.057 198.63Z" fill="#8B1D1A"/>
<path d="M217.67 229.694L215.192 229.361L216.853 232.903C217.172 233.581 216.891 234.4 216.201 234.719C215.524 235.039 214.706 234.758 214.387 234.067C214.374 234.042 214.374 234.029 214.361 234.003L212.547 229.681L211.065 233.799L213.16 240.704C213.608 242.175 214.719 243.364 216.15 243.902L228.363 248.493L229.59 247.188C230.51 246.203 231.136 244.976 231.404 243.646L232.004 240.564L224.761 236.766L217.67 229.694Z" fill="#FFB5A7"/>
<path d="M216.431 240.321C214.106 238.722 212.611 237.162 211.666 235.755L213.16 240.704C213.608 242.175 214.719 243.364 216.15 243.901L228.363 248.493L229.59 247.188C230.51 246.203 231.136 244.976 231.404 243.646L232.004 240.564L229.27 239.131C228.925 243.927 224.058 245.577 216.431 240.321Z" fill="#FF8492"/>
<path d="M162.415 209.53L131.757 225.964L140.937 243.123L171.595 226.689L162.415 209.53Z" fill="#C2D3FE"/>
<path d="M140.927 243.096L172.432 226.714L162.403 209.513L140.927 243.096Z" fill="#A4BAFE"/>
<path d="M162.415 209.525L131.757 225.959L132.656 227.639L163.313 211.205L162.415 209.525Z" fill="white"/>
<path d="M197.718 208.221C201.97 206.719 202.36 196.831 198.589 186.134C194.817 175.438 188.314 167.984 184.062 169.486C179.81 170.988 179.421 180.877 183.192 191.573C186.963 202.27 193.467 209.723 197.718 208.221Z" fill="#FFC981"/>
<path d="M196.965 208.49C200.798 207.136 200.848 197.367 197.076 186.671C193.305 175.974 187.141 168.401 183.309 169.754C179.476 171.108 179.427 180.877 183.198 191.574C186.969 202.27 193.133 209.844 196.965 208.49Z" fill="#FF974F"/>
<path d="M189.181 184.512C188.197 184.806 187.75 186.187 188.171 187.607C188.593 189.026 189.73 189.934 190.714 189.653C191.697 189.372 192.144 187.978 191.723 186.558C191.301 185.139 190.152 184.218 189.181 184.512Z" fill="#432C89"/>
<path d="M193.524 194.218C191.723 197.863 188.976 199.206 186.907 199.692C187.354 200.459 187.814 201.188 188.274 201.866C192.783 199.372 194.661 193.937 193.524 194.218Z" fill="#432C89"/>
<path d="M156.577 216.087L154.342 215.23C153.907 215.064 153.422 215.281 153.256 215.716C153.205 215.844 153.192 215.972 153.205 216.099C153.23 216.291 153.307 216.47 153.435 216.598L157.191 220.511L157.05 222.34C156.833 225.064 158.008 227.699 160.18 229.348L161.803 230.576L157.357 234.374L166.415 236.842L170.209 229.169L158.8 217.506C158.161 216.892 157.408 216.406 156.577 216.087Z" fill="#FFB5A7"/>
<path d="M140.927 243.109C140.927 243.109 138.525 233.581 131.742 225.947L140.927 243.109Z" fill="#A497DC"/>
<path d="M113.275 287.972L96.5263 325.765L154.707 351.601L171.456 313.807L113.275 287.972Z" fill="#FF8140"/>
<path d="M113.165 287.939L97.6441 322.962L155.019 348.44L170.54 313.417L113.165 287.939Z" fill="#FF974F"/>
<path d="M111.403 291.782L128.484 330.083L168.65 316.783L170.528 313.381L113.153 287.907L111.403 291.782Z" fill="#FF8140"/>
<path d="M130.272 325.223L170.528 313.381L113.153 287.907L130.272 325.223Z" fill="#FFC44F"/>
<path d="M130.272 325.223C124.792 308.343 113.153 287.894 113.153 287.894L130.272 325.223Z" fill="white"/>
<path d="M66.7266 107.666L65.9218 115.736L83.2582 112.513L115.261 135.353L88.1002 99.1873L66.7266 107.666Z" fill="#00B2FF"/>
<path d="M53.4017 53.7755L47.4099 62.8425L59.8533 113.613L125.188 97.5887L110.994 39.6442L53.4017 53.7755Z" fill="#ECF9FE"/>
<path d="M53.4017 53.7755L47.4227 62.8425L55.7396 60.8092C55.7269 60.8092 53.0695 54.3126 53.4017 53.7755Z" fill="#C2D3FE"/>
<path d="M77.7237 70.3114C80.8918 67.1401 80.8918 61.9984 77.7237 58.8271C74.5556 55.6559 69.4191 55.6559 66.251 58.8271C63.0829 61.9984 63.0829 67.1401 66.251 70.3114C69.4191 73.4827 74.5556 73.4827 77.7237 70.3114Z" fill="#00CCFF" fill-opacity="0.1"/>
<path d="M70.8276 59.8372C69.6395 60.1314 68.924 61.3335 69.2179 62.5228C69.5117 63.7121 70.7126 64.4283 71.9007 64.1342C73.0889 63.84 73.8043 62.6379 73.5232 61.4614C73.2166 60.272 72.0285 59.5431 70.8276 59.8372Z" fill="#220073"/>
<path d="M72.2329 65.5793C69.6267 66.2187 67.5059 68.0986 66.5733 70.6179C69.9077 73.6104 75.0307 73.3419 78.033 70.0041C78.7101 69.2495 79.2339 68.3799 79.5916 67.4208C77.5858 65.6176 74.8391 64.927 72.2329 65.5793Z" fill="#220073"/>
<path d="M108.899 54.6451L82.2489 61.18C82.0318 61.2312 81.904 61.4486 81.9551 61.6532C81.9934 61.8322 82.1595 61.9601 82.3512 61.9601C82.3767 61.9601 82.415 61.9601 82.4406 61.9473L109.09 55.4124C109.308 55.3613 109.435 55.1439 109.384 54.9265C109.333 54.709 109.116 54.594 108.899 54.6451Z" fill="#00CCFF" fill-opacity="0.1"/>
<path d="M95.8933 65.3235L68.3747 111.336L121.304 94.0847L121.611 81.9741L116.168 62.8937L95.8933 65.3235Z" fill="#CEE5FE"/>
<path d="M102.038 71.4491L76.0911 101.898L115.261 135.353L144.888 100.607L110.342 71.1038L102.038 71.4491Z" fill="#ECF9FE"/>
<path d="M107.021 75.7077C107.021 75.7077 109.87 71.155 110.342 71.1166L102.038 71.4491L107.021 75.7077Z" fill="#C2D3FE"/>
<path d="M111.416 82.6007C111.25 82.46 110.994 82.4856 110.854 82.6518C110.777 82.7541 110.739 82.882 110.777 83.0099C110.802 83.0866 110.841 83.1505 110.905 83.2017L126.887 96.847C127.04 97.0005 127.296 97.0132 127.449 96.8598C127.602 96.7063 127.615 96.4506 127.462 96.2971C127.449 96.2843 127.423 96.2587 127.398 96.2459L111.416 82.6007Z" fill="#220073"/>
<path d="M110.049 84.4422C109.883 84.3016 109.627 84.3143 109.487 84.4806C109.346 84.6468 109.359 84.9026 109.525 85.0433L125.507 98.6886C125.673 98.8293 125.929 98.8165 126.069 98.6502C126.21 98.484 126.197 98.2282 126.031 98.0875L110.049 84.4422Z" fill="#220073"/>
<path d="M107.11 88.1892C106.944 88.0486 106.689 88.0614 106.548 88.2276C106.408 88.3939 106.42 88.6496 106.586 88.7903L122.569 102.436C122.735 102.576 122.99 102.563 123.131 102.384C123.271 102.205 123.259 101.962 123.08 101.822L107.11 88.1892Z" fill="#220073"/>
<path d="M105.743 90.0435C105.577 89.9029 105.322 89.9157 105.181 90.0819C105.041 90.2482 105.053 90.5039 105.219 90.6446L121.202 104.29C121.368 104.431 121.623 104.418 121.764 104.252C121.904 104.085 121.892 103.83 121.726 103.689L105.743 90.0435Z" fill="#220073"/>
<path d="M102.805 93.7906C102.639 93.6499 102.383 93.6627 102.243 93.8289C102.153 93.9312 102.128 94.0719 102.166 94.1998C102.192 94.2765 102.23 94.3405 102.294 94.3916L118.276 108.037C118.442 108.178 118.698 108.165 118.838 107.999C118.979 107.832 118.966 107.577 118.8 107.436L102.805 93.7906Z" fill="#220073"/>
<path d="M101.438 95.6449C101.272 95.5043 101.016 95.517 100.876 95.6833C100.735 95.8495 100.748 96.1053 100.914 96.246L116.896 109.891C117.062 110.032 117.318 110.019 117.458 109.853C117.599 109.687 117.586 109.431 117.42 109.29L101.438 95.6449Z" fill="#220073"/>
<path d="M98.4995 99.3919C98.3462 99.2384 98.0907 99.2256 97.9374 99.3791C97.7841 99.5326 97.7713 99.7883 97.9246 99.9418C97.9374 99.9546 97.9629 99.9802 97.9885 99.993L113.971 113.638C114.137 113.779 114.392 113.766 114.533 113.6C114.673 113.434 114.661 113.178 114.495 113.037L98.4995 99.3919Z" fill="#220073"/>
<path d="M97.1325 101.233C96.9664 101.093 96.7109 101.106 96.5704 101.272C96.4299 101.438 96.4426 101.694 96.6087 101.834L112.591 115.493C112.757 115.633 113.013 115.62 113.153 115.454C113.294 115.288 113.281 115.032 113.115 114.892L97.1325 101.233Z" fill="#220073"/>
<path d="M155.716 195.812C166.728 193.389 172.685 177.897 169.02 161.21C165.356 144.523 153.458 132.96 142.445 135.383C131.433 137.806 125.476 153.298 129.141 169.985C132.805 186.672 144.703 198.235 155.716 195.812Z" fill="#00B2FF"/>
<path d="M159.861 133.026C156.539 130.839 152.847 129.739 148.746 130.11C141.093 130.813 136.264 135.187 133.045 141.517C129.314 148.87 128.663 156.697 129.94 164.664C131.371 173.706 135.063 181.737 142.256 187.939C145.692 190.906 149.666 192.888 154.367 193.08C161.866 193.387 167.041 189.678 170.822 183.834C174.45 178.233 175.664 171.979 175.792 163.884C175.536 162.043 175.319 158.603 174.527 155.29C172.368 146.236 168.024 138.397 159.861 133.026Z" fill="#FF974F"/>
<path d="M159.822 135.021C156.807 133.013 153.447 131.99 149.717 132.335C142.754 132.974 138.372 137.016 135.434 142.86C132.035 149.638 131.448 156.85 132.598 164.217C133.901 172.555 137.248 179.959 143.802 185.676C146.932 188.412 150.547 190.228 154.827 190.42C161.649 190.702 166.351 187.287 169.8 181.89C173.096 176.724 174.208 170.956 174.323 163.488C174.08 161.8 173.888 158.615 173.173 155.559C171.193 147.195 167.245 139.982 159.822 135.021Z" fill="#E0592C"/>
<path d="M159.733 136.376C156.922 134.471 153.792 133.499 150.33 133.831C143.853 134.445 139.765 138.269 137.043 143.806C133.875 150.239 133.339 157.081 134.412 164.05C135.625 171.954 138.743 178.975 144.837 184.397C147.749 186.993 151.109 188.719 155.095 188.886C161.432 189.154 165.827 185.919 169.021 180.803C172.087 175.905 173.122 170.445 173.224 163.36C173.007 161.748 172.828 158.743 172.151 155.84C170.311 147.911 166.632 141.07 159.733 136.376Z" fill="#FFC44F"/>
<path d="M134.412 164.038C135.625 171.941 138.743 178.962 144.837 184.384C147.749 186.98 151.109 188.707 155.095 188.873C161.432 189.141 165.827 185.906 169.021 180.79C169.979 179.256 170.771 177.619 171.371 175.905L134.897 149.676C133.709 154.331 133.658 159.152 134.412 164.038Z" fill="#FFD16A"/>
<path d="M154.009 159.523C150.011 159.293 147.762 155.648 149.359 151.965C150.688 148.896 154.099 148.385 156.156 151.032C156.731 151.773 157.037 152.784 157.229 153.73C157.459 154.843 157.842 155.699 159.107 155.52C160.397 155.341 160.525 154.318 160.397 153.257C160.091 150.75 158.966 148.615 156.769 147.425C154.98 146.453 153.601 145.609 153.843 143.244C153.894 142.783 152.783 142.208 152.208 141.683C151.735 142.297 151.224 142.885 150.828 143.538C150.688 143.768 150.828 144.177 150.854 144.676C151.263 145.916 150.534 146.569 149.372 147.285C146.216 149.241 144.977 153.027 146.012 156.863C146.945 160.291 149.704 162.477 153.371 162.708C156.871 162.938 159.005 166.097 157.995 169.626C157.484 171.391 156.462 172.798 154.495 172.913C152.617 173.028 151.224 172.018 150.381 170.342C150.1 169.741 149.921 169.115 149.845 168.45C149.691 167.299 149.116 166.352 147.979 166.787C147.366 167.03 146.74 168.296 146.804 169.051C147.021 171.877 148.503 174.128 151.097 175.24C152.745 175.944 153.281 176.89 153.192 178.501C153.179 178.834 153.102 179.269 153.281 179.473C153.741 180.01 154.457 180.944 154.814 180.842C155.44 180.663 155.977 179.882 156.36 179.23C156.565 178.898 156.411 178.322 156.322 177.875C156.079 176.583 156.347 175.79 157.663 175.061C160.704 173.348 162.032 169.396 161.113 165.7C160.218 162.119 157.459 159.728 154.009 159.523Z" fill="#E0592C"/>
<path d="M155.313 159.523C151.314 159.293 149.065 155.648 150.662 151.965C151.991 148.896 155.402 148.385 157.459 151.032C158.034 151.773 158.34 152.784 158.532 153.73C158.762 154.843 159.145 155.699 160.41 155.52C161.7 155.341 161.828 154.318 161.7 153.257C161.394 150.75 160.269 148.615 158.072 147.425C156.283 146.453 154.891 145.609 155.146 143.244C155.198 142.783 154.086 142.208 153.511 141.683C153.038 142.297 152.527 142.885 152.131 143.538C151.991 143.768 152.131 144.177 152.157 144.676C152.566 145.916 151.838 146.569 150.675 147.285C147.519 149.241 146.28 153.027 147.315 156.863C148.248 160.291 150.994 162.477 154.674 162.708C158.174 162.938 160.308 166.097 159.299 169.626C158.788 171.391 157.765 172.798 155.798 172.913C153.92 173.028 152.527 172.018 151.684 170.342C151.403 169.741 151.224 169.115 151.148 168.45C150.994 167.299 150.419 166.352 149.282 166.787C148.669 167.03 148.043 168.296 148.107 169.051C148.324 171.877 149.806 174.128 152.4 175.24C154.048 175.944 154.584 176.89 154.495 178.501C154.482 178.834 154.405 179.269 154.584 179.473C155.044 180.01 155.76 180.944 156.117 180.842C156.743 180.663 157.28 179.882 157.663 179.23C157.868 178.898 157.714 178.322 157.625 177.875C157.382 176.583 157.65 175.79 158.966 175.061C162.007 173.348 163.336 169.396 162.416 165.7C161.521 162.119 158.762 159.728 155.313 159.523Z" fill="#FFFFB5"/>
<path d="M194.951 137.874C196.607 130.11 193.793 122.927 188.666 121.832C183.539 120.736 178.04 126.142 176.385 133.906C174.729 141.67 177.543 148.852 182.67 149.948C187.797 151.043 193.295 145.638 194.951 137.874Z" fill="#00B2FF"/>
<path d="M194.138 115.429C190.1 114.278 186.804 115.557 183.917 118.153C180.583 121.158 178.717 125.02 177.798 129.317C176.763 134.202 177.057 138.998 179.509 143.563C180.685 145.75 182.32 147.528 184.671 148.551C188.427 150.175 191.774 149.305 194.853 147.067C197.791 144.932 199.631 141.99 201.292 137.898C201.522 136.913 202.084 135.123 202.327 133.281C202.991 128.243 202.314 123.409 199.222 119.086C197.957 117.334 196.297 116.043 194.138 115.429Z" fill="#FF974F"/>
<path d="M194.201 116.746C190.535 115.71 187.507 116.899 184.875 119.304C181.822 122.091 180.11 125.647 179.254 129.611C178.283 134.113 178.539 138.525 180.749 142.719C181.809 144.727 183.291 146.364 185.425 147.298C188.836 148.781 191.902 147.963 194.712 145.891C197.395 143.909 199.094 141.197 200.615 137.425C200.832 136.517 201.356 134.867 201.586 133.166C202.212 128.537 201.624 124.086 198.813 120.109C197.664 118.485 196.156 117.309 194.201 116.746Z" fill="#E0592C"/>
<path d="M194.214 117.628C190.803 116.669 187.98 117.82 185.501 120.096C182.639 122.744 181.017 126.12 180.199 129.88C179.267 134.138 179.484 138.32 181.515 142.272C182.486 144.164 183.866 145.699 185.846 146.569C189.015 147.95 191.876 147.157 194.521 145.187C197.038 143.295 198.635 140.724 200.078 137.143C200.283 136.287 200.781 134.714 200.998 133.115C201.611 128.729 201.087 124.521 198.494 120.774C197.446 119.24 196.041 118.14 194.214 117.628Z" fill="#FFC44F"/>
<path d="M180.199 129.88C179.267 134.138 179.484 138.32 181.515 142.272C182.486 144.164 183.866 145.699 185.846 146.569C189.015 147.95 191.876 147.157 194.521 145.187C195.313 144.599 196.028 143.909 196.667 143.167L183.24 122.667C181.745 124.803 180.774 127.245 180.199 129.88Z" fill="#FFD16A"/>
<path d="M194.163 123.102C194.278 122.884 193.831 122.373 193.639 121.989C193.269 122.194 192.911 122.411 192.579 122.654C192.464 122.744 192.451 122.987 192.375 123.242C192.336 123.959 191.838 124.15 191.11 124.278C189.117 124.662 187.75 126.337 187.533 128.486C187.341 130.404 188.312 132.066 190.126 132.898C191.863 133.703 192.323 135.724 191.123 137.323C190.522 138.115 189.717 138.627 188.695 138.307C187.711 138 187.213 137.207 187.111 136.197C187.085 135.839 187.124 135.481 187.213 135.136C187.354 134.522 187.252 133.921 186.587 133.934C186.229 133.934 185.667 134.458 185.552 134.854C185.118 136.338 185.425 137.77 186.523 138.844C187.226 139.522 187.315 140.11 186.945 140.916C186.868 141.082 186.753 141.287 186.804 141.428C186.932 141.798 187.111 142.4 187.315 142.425C187.673 142.451 188.095 142.157 188.414 141.914C188.58 141.786 188.618 141.453 188.657 141.21C188.785 140.507 189.078 140.162 189.896 140.034C191.774 139.765 193.23 138.013 193.486 135.941C193.729 133.959 192.796 132.194 191.071 131.414C189.078 130.506 188.657 128.217 190.177 126.657C191.455 125.353 193.294 125.762 193.818 127.514C193.959 128 193.92 128.575 193.831 129.1C193.729 129.713 193.754 130.225 194.431 130.378C195.109 130.532 195.39 130.046 195.53 129.483C195.862 128.153 195.709 126.836 194.827 125.8C194.112 124.956 193.575 124.253 194.163 123.102Z" fill="#E0592C"/>
<path d="M194.827 123.358C194.942 123.14 194.495 122.629 194.304 122.245C193.933 122.45 193.575 122.667 193.243 122.91C193.128 122.999 193.115 123.242 193.039 123.498C193.001 124.214 192.502 124.406 191.774 124.534C189.781 124.918 188.414 126.593 188.197 128.741C188.005 130.66 188.976 132.322 190.79 133.153C192.528 133.959 192.988 135.98 191.787 137.578C191.186 138.371 190.382 138.883 189.359 138.563C188.376 138.256 187.878 137.463 187.775 136.453C187.75 136.095 187.788 135.737 187.878 135.391C188.018 134.778 187.916 134.177 187.251 134.189C186.894 134.189 186.332 134.714 186.217 135.11C185.782 136.594 186.089 138.026 187.188 139.1C187.89 139.778 187.98 140.366 187.609 141.172C187.533 141.338 187.418 141.543 187.469 141.683C187.596 142.054 187.775 142.655 187.98 142.681C188.337 142.706 188.759 142.412 189.078 142.169C189.244 142.041 189.283 141.709 189.321 141.466C189.449 140.763 189.743 140.417 190.56 140.289C192.438 140.021 193.895 138.269 194.15 136.197C194.393 134.215 193.46 132.45 191.736 131.67C189.743 130.762 189.321 128.473 190.841 126.913C192.119 125.608 193.959 126.018 194.482 127.77C194.636 128.256 194.585 128.831 194.495 129.355C194.393 129.969 194.419 130.481 195.096 130.634C195.773 130.788 196.054 130.302 196.194 129.739C196.527 128.409 196.373 127.092 195.492 126.056C194.776 125.212 194.24 124.508 194.827 123.358Z" fill="#FFFFB5"/>
<path d="M152.928 93.1073C156.667 91.2272 157.392 85.1085 154.548 79.4409C151.704 73.7733 146.367 70.7029 142.628 72.583C138.889 74.4632 138.164 80.5818 141.008 86.2494C143.853 91.9171 149.189 94.9874 152.928 93.1073Z" fill="#00B2FF"/>
<path d="M156.871 72.907C154.776 69.4413 151.94 66.7558 147.852 65.6176C146.191 65.1572 144.504 65.1828 142.856 65.8734C139.777 67.1778 138.347 69.6332 137.848 72.6768C137.261 76.2192 138.027 79.557 139.611 82.6902C141.4 86.2454 143.981 89.0972 147.788 90.7213C149.602 91.5014 151.518 91.7956 153.498 91.2585C156.654 90.4016 158.302 88.1764 159.107 85.2479C159.873 82.4472 159.554 79.6849 158.545 76.3087C158.187 75.5798 157.638 74.1731 156.871 72.907Z" fill="#FF974F"/>
<path d="M156.335 73.2012C154.418 70.0041 151.825 67.5231 148.094 66.4489C146.574 66.0141 145.054 66.0396 143.546 66.6663C140.748 67.8556 139.458 70.1064 139.011 72.9198C138.5 76.1809 139.202 79.2501 140.646 82.1531C142.294 85.4397 144.658 88.0614 148.12 89.5704C149.781 90.2994 151.518 90.5679 153.32 90.082C156.181 89.3019 157.689 87.2557 158.404 84.5573C159.094 81.9741 158.787 79.442 157.855 76.3216C157.548 75.6566 157.05 74.3649 156.335 73.2012Z" fill="#E0592C"/>
<path d="M155.951 73.4442C154.15 70.4005 151.71 68.0474 148.235 67.0116C146.817 66.5895 145.399 66.6023 143.993 67.2034C141.387 68.316 140.199 70.4389 139.803 73.0989C139.343 76.1809 140.02 79.0967 141.374 81.8462C142.92 84.9666 145.143 87.4603 148.375 88.9054C149.921 89.596 151.544 89.8645 153.217 89.417C155.887 88.688 157.28 86.7697 157.932 84.2248C158.558 81.795 158.264 79.378 157.382 76.4239C157.088 75.7844 156.616 74.5568 155.951 73.4442Z" fill="#FFC44F"/>
<path d="M141.374 81.8462C142.92 84.9666 145.143 87.4603 148.375 88.9054C149.921 89.596 151.544 89.8645 153.217 89.4169C155.887 88.688 157.28 86.7697 157.932 84.2248C158.123 83.4575 158.238 82.6774 158.264 81.8845L139.675 75.8228C139.803 77.9073 140.429 79.9151 141.374 81.8462Z" fill="#FFD16A"/>
<path d="M152.668 78.9943C151.825 77.6387 150.368 77.0121 148.912 77.383C147.226 77.8178 145.808 76.6029 145.986 74.8637C146.127 73.4186 147.481 72.7536 148.682 73.572C149.014 73.8022 149.282 74.1859 149.487 74.5439C149.73 74.9787 149.998 75.2729 150.496 75.0427C150.994 74.8125 150.931 74.3521 150.726 73.9301C150.266 72.9326 149.525 72.1909 148.452 71.9862C147.583 71.82 146.893 71.6537 146.689 70.6435C146.651 70.4516 146.114 70.3621 145.808 70.2214C145.68 70.5284 145.565 70.8481 145.475 71.1678C145.45 71.2829 145.565 71.4363 145.641 71.641C145.974 72.1013 145.756 72.4722 145.373 72.9198C144.326 74.1475 144.313 75.8867 145.245 77.3318C146.089 78.6235 147.519 79.1734 149.065 78.7897C150.547 78.4188 151.85 79.4547 151.901 81.0533C151.927 81.8461 151.684 82.5751 150.879 82.882C150.113 83.1761 149.397 82.946 148.835 82.3577C148.644 82.1531 148.478 81.9101 148.363 81.6415C148.145 81.1812 147.788 80.8614 147.366 81.1939C147.136 81.373 147.06 81.9868 147.174 82.2937C147.634 83.4319 148.554 84.1736 149.768 84.2887C150.547 84.3655 150.892 84.6852 151.071 85.363C151.109 85.5036 151.135 85.6955 151.237 85.7466C151.493 85.9129 151.914 86.1942 152.055 86.1047C152.298 85.9512 152.412 85.5548 152.489 85.2351C152.527 85.0688 152.387 84.8514 152.298 84.6724C152.029 84.1736 152.042 83.8028 152.476 83.3296C153.511 82.2298 153.537 80.4011 152.668 78.9943Z" fill="#E0592C"/>
<path d="M153.217 78.8153C152.374 77.4597 150.918 76.8331 149.461 77.204C147.775 77.6388 146.357 76.4239 146.536 74.6846C146.676 73.2395 148.03 72.5745 149.231 73.393C149.564 73.6232 149.832 74.0068 150.023 74.3649C150.266 74.7997 150.534 75.0939 151.033 74.8637C151.531 74.6335 151.467 74.1731 151.275 73.7511C150.816 72.7536 150.075 72.0118 149.001 71.8072C148.133 71.641 147.443 71.4747 147.238 70.4644C147.2 70.2726 146.663 70.1831 146.357 70.0424C146.229 70.3493 146.127 70.669 146.025 70.9888C145.999 71.1039 146.114 71.2573 146.191 71.4619C146.523 71.9223 146.306 72.2932 145.922 72.7408C144.875 73.9685 144.862 75.7077 145.795 77.1528C146.638 78.4444 148.069 78.9943 149.615 78.6107C151.097 78.2398 152.4 79.2757 152.438 80.8742C152.464 81.6671 152.221 82.3961 151.416 82.703C150.649 82.9971 149.934 82.7669 149.372 82.1787C149.18 81.974 149.014 81.7311 148.899 81.4625C148.682 81.0021 148.324 80.6824 147.903 81.0149C147.673 81.194 147.596 81.8078 147.711 82.1147C148.171 83.2529 149.091 83.9946 150.304 84.1097C151.084 84.1865 151.429 84.5062 151.608 85.184C151.646 85.3246 151.671 85.5165 151.774 85.5676C152.042 85.7339 152.451 86.0152 152.591 85.9257C152.834 85.7722 152.949 85.3758 153.026 85.0561C153.064 84.8898 152.923 84.6724 152.834 84.4934C152.566 83.9946 152.566 83.6238 153.013 83.1506C154.048 82.0508 154.086 80.2348 153.217 78.8153Z" fill="#FFFFB5"/>
<path d="M268.872 115.762C270.383 109.602 268.313 103.799 264.249 102.801C260.186 101.802 255.667 105.986 254.157 112.146C252.646 118.306 254.716 124.109 258.779 125.107C262.843 126.106 267.362 121.922 268.872 115.762Z" fill="#00B2FF"/>
<path d="M268.747 97.8189C265.553 96.8086 262.883 97.755 260.519 99.75C257.785 102.065 256.201 105.096 255.371 108.523C254.426 112.398 254.553 116.234 256.393 119.943C257.274 121.721 258.539 123.178 260.392 124.048C263.343 125.442 266.051 124.828 268.555 123.115C270.957 121.478 272.503 119.176 273.908 115.94C274.113 115.16 274.611 113.741 274.854 112.27C275.505 108.267 275.084 104.392 272.72 100.863C271.749 99.4303 270.459 98.356 268.747 97.8189Z" fill="#FF974F"/>
<path d="M268.76 98.8676C265.86 97.9468 263.42 98.8293 261.248 100.684C258.744 102.832 257.287 105.633 256.521 108.779C255.639 112.347 255.741 115.876 257.402 119.278C258.194 120.902 259.344 122.245 261.03 123.038C263.713 124.304 266.179 123.728 268.479 122.143C270.676 120.621 272.094 118.498 273.397 115.518C273.589 114.802 274.049 113.498 274.266 112.142C274.879 108.459 274.509 104.891 272.362 101.656C271.494 100.338 270.318 99.3664 268.76 98.8676Z" fill="#E0592C"/>
<path d="M268.747 99.571C266.039 98.727 263.764 99.571 261.733 101.336C259.382 103.382 258.015 106.042 257.262 109.009C256.418 112.385 256.482 115.723 258.015 118.933C258.744 120.467 259.804 121.721 261.375 122.462C263.879 123.639 266.179 123.076 268.325 121.567C270.382 120.122 271.724 118.101 272.95 115.275C273.129 114.597 273.563 113.357 273.78 112.078C274.381 108.587 274.062 105.223 272.069 102.167C271.289 100.939 270.203 100.031 268.747 99.571Z" fill="#FFC44F"/>
<path d="M257.274 109.009C256.431 112.385 256.495 115.723 258.028 118.933C258.756 120.467 259.817 121.721 261.388 122.462C263.892 123.639 266.192 123.076 268.338 121.567C268.977 121.107 269.577 120.582 270.101 120.007L259.881 103.318C258.629 104.993 257.798 106.924 257.274 109.009Z" fill="#FFD16A"/>
<path d="M268.581 103.945C268.683 103.766 268.325 103.344 268.185 103.049C267.891 103.203 267.597 103.369 267.316 103.561C267.214 103.625 267.214 103.817 267.137 104.021C267.086 104.584 266.69 104.725 266.102 104.827C264.505 105.083 263.368 106.387 263.138 108.101C262.934 109.635 263.675 110.978 265.106 111.694C266.473 112.372 266.792 114.009 265.796 115.25C265.298 115.876 264.646 116.26 263.841 115.979C263.062 115.71 262.679 115.071 262.627 114.252C262.615 113.971 262.653 113.677 262.73 113.408C262.857 112.922 262.794 112.436 262.27 112.423C261.976 112.411 261.516 112.82 261.414 113.127C261.03 114.303 261.235 115.454 262.091 116.337C262.627 116.899 262.691 117.373 262.385 117.999C262.321 118.127 262.219 118.293 262.257 118.408C262.346 118.703 262.474 119.201 262.64 119.214C262.921 119.252 263.266 119.022 263.535 118.83C263.675 118.728 263.713 118.472 263.752 118.281C263.867 117.718 264.122 117.449 264.761 117.373C266.269 117.206 267.469 115.838 267.725 114.201C267.968 112.628 267.265 111.196 265.911 110.531C264.339 109.763 264.058 107.922 265.323 106.707C266.371 105.697 267.827 106.068 268.21 107.474C268.313 107.871 268.261 108.331 268.185 108.74C268.083 109.226 268.095 109.636 268.632 109.776C269.169 109.917 269.399 109.533 269.526 109.086C269.833 108.024 269.731 106.976 269.054 106.131C268.491 105.415 268.083 104.853 268.581 103.945Z" fill="#E0592C"/>
<path d="M269.105 104.162C269.207 103.983 268.849 103.561 268.709 103.267C268.415 103.42 268.121 103.587 267.84 103.778C267.738 103.842 267.738 104.034 267.661 104.239C267.61 104.801 267.214 104.942 266.626 105.032C265.029 105.287 263.892 106.592 263.662 108.306C263.458 109.84 264.199 111.183 265.63 111.899C266.997 112.577 267.316 114.214 266.32 115.454C265.821 116.081 265.17 116.465 264.352 116.183C263.573 115.915 263.19 115.262 263.138 114.457C263.126 114.175 263.164 113.881 263.241 113.613C263.368 113.127 263.305 112.654 262.781 112.628C262.487 112.615 262.027 113.024 261.925 113.344C261.542 114.521 261.746 115.672 262.602 116.554C263.138 117.117 263.202 117.59 262.896 118.217C262.832 118.344 262.73 118.511 262.768 118.626C262.857 118.92 262.985 119.419 263.151 119.431C263.432 119.47 263.777 119.24 264.046 119.048C264.186 118.946 264.224 118.69 264.263 118.498C264.378 117.935 264.633 117.667 265.272 117.59C266.78 117.411 267.98 116.055 268.236 114.418C268.479 112.845 267.776 111.413 266.422 110.748C264.85 109.981 264.569 108.139 265.834 106.924C266.882 105.914 268.338 106.285 268.721 107.692C268.824 108.088 268.773 108.548 268.696 108.958C268.594 109.444 268.606 109.853 269.143 109.994C269.68 110.134 269.91 109.751 270.037 109.303C270.344 108.242 270.242 107.193 269.565 106.349C269.015 105.633 268.594 105.07 269.105 104.162Z" fill="#FFFFB5"/>
<path d="M81.5974 308.24C77.4454 299.902 71.4664 293.239 62.3063 289.838C58.5886 288.457 54.7304 288.201 50.821 289.492C43.5134 291.897 39.7957 297.242 38.0838 304.135C36.0908 312.141 37.215 319.903 40.2428 327.397C43.6667 335.889 49.058 342.884 57.4516 347.309C61.4759 349.432 65.7812 350.468 70.406 349.598C77.7775 348.217 81.9935 343.447 84.3697 336.886C86.6438 330.62 86.4394 324.251 84.753 316.323C84.1014 314.596 83.1177 311.284 81.5974 308.24Z" fill="#FF974F"/>
<path d="M80.3199 308.803C76.5255 301.104 71.0575 294.953 62.7151 291.794C59.3296 290.515 55.8163 290.273 52.2647 291.436C45.6214 293.623 42.2614 298.547 40.7028 304.903C38.9142 312.269 39.9618 319.43 42.7341 326.349C45.8769 334.188 50.7955 340.646 58.448 344.751C62.1146 346.721 66.0367 347.68 70.2527 346.9C76.9599 345.647 80.7798 341.26 82.9261 335.224C84.9829 329.456 84.7658 323.586 83.2071 316.271C82.6067 314.66 81.7124 311.616 80.3199 308.803Z" fill="#E0592C"/>
<path d="M79.3872 309.302C75.8228 302 70.6998 296.142 62.9323 293.124C59.7639 291.897 56.5062 291.654 53.1973 292.753C47.0267 294.8 43.8967 299.455 42.4914 305.465C40.8433 312.435 41.8526 319.226 44.4588 325.786C47.4099 333.216 52.0219 339.355 59.1763 343.281C62.6001 345.161 66.2539 346.081 70.176 345.352C76.4233 344.189 79.9621 340.058 81.9423 334.342C83.8331 328.881 83.616 323.318 82.134 316.399C81.5463 314.865 80.7031 311.975 79.3872 309.302Z" fill="#FFC44F"/>
<path d="M44.4588 325.773C47.4099 333.203 52.0219 339.342 59.1762 343.268C62.6001 345.148 66.2539 346.069 70.176 345.34C76.4233 344.176 79.9621 340.045 81.9423 334.329C82.53 332.615 82.9388 330.837 83.1305 329.034L41.712 311.655C41.5842 316.476 42.6191 321.182 44.4588 325.773Z" fill="#FFD16A"/>
<path d="M62.5362 316.975C58.5886 317.653 55.5863 314.596 56.3017 310.645C56.9022 307.358 60.1089 306.092 62.7151 308.202C63.4433 308.79 63.9671 309.711 64.3631 310.581C64.8358 311.616 65.398 312.358 66.5861 311.898C67.7998 311.437 67.6976 310.402 67.3399 309.391C66.4839 307.013 64.9125 305.184 62.4979 304.519C60.5432 303.969 58.9974 303.47 58.7163 301.104C58.6652 300.644 57.4515 300.337 56.7744 299.953C56.4551 300.657 56.0846 301.347 55.8418 302.063C55.7524 302.319 55.9951 302.69 56.1229 303.163C56.8 304.289 56.2379 305.082 55.2669 306.041C52.6224 308.662 52.2647 312.627 54.1427 316.118C55.8163 319.238 58.9974 320.76 62.6129 320.159C66.0751 319.596 68.8601 322.205 68.6685 325.863C68.5663 327.692 67.8764 329.29 65.9856 329.853C64.1715 330.39 62.6001 329.712 61.3992 328.267C60.9904 327.743 60.671 327.167 60.4538 326.553C60.045 325.466 59.2785 324.673 58.2692 325.351C57.7198 325.722 57.4005 327.103 57.6304 327.819C58.4864 330.518 60.4283 332.385 63.2006 332.884C64.9636 333.191 65.7046 334.009 65.9729 335.595C66.024 335.915 66.0623 336.362 66.2667 336.516C66.8416 336.938 67.7359 337.679 68.0681 337.5C68.643 337.181 68.9751 336.298 69.2051 335.595C69.3201 335.224 69.0518 334.7 68.8601 334.278C68.3363 333.075 68.4258 332.244 69.5373 331.234C72.1179 328.881 72.5267 324.725 70.802 321.336C69.1795 318.1 65.9473 316.399 62.5362 316.975Z" fill="#E0592C"/>
<path d="M63.801 316.681C59.8534 317.358 56.8511 314.302 57.5666 310.35C58.167 307.064 61.3737 305.798 63.9799 307.908C64.7081 308.496 65.2319 309.417 65.6279 310.286C66.1006 311.322 66.6628 312.064 67.8509 311.604C69.0646 311.143 68.9624 310.107 68.6046 309.097C67.7487 306.718 66.1645 304.89 63.7627 304.225C61.8081 303.675 60.2622 303.176 59.9811 300.81C59.93 300.35 58.7164 300.043 58.0392 299.659C57.7199 300.363 57.3494 301.053 57.1066 301.769C57.0172 302.025 57.2599 302.396 57.3877 302.869C58.0648 303.994 57.5027 304.787 56.5317 305.746C53.8872 308.368 53.5295 312.333 55.4075 315.824C57.0811 318.944 60.2622 320.466 63.8777 319.865C67.3399 319.302 70.1249 321.911 69.9333 325.569C69.8311 327.397 69.1412 328.996 67.2504 329.559C65.4363 330.096 63.8649 329.418 62.664 327.973C62.2552 327.461 61.9358 326.873 61.7186 326.259C61.3098 325.172 60.5433 324.379 59.534 325.057C58.9846 325.428 58.6652 326.809 58.8952 327.525C59.7512 330.224 61.6931 332.091 64.4654 332.589C66.2284 332.896 66.9694 333.715 67.2377 335.301C67.2888 335.62 67.3271 336.068 67.5443 336.221C68.1064 336.643 69.0135 337.385 69.3456 337.206C69.9205 336.886 70.2527 336.004 70.4827 335.301C70.5977 334.93 70.3294 334.405 70.1377 333.983C69.6139 332.781 69.7034 331.95 70.8148 330.94C73.3955 328.587 73.8043 324.43 72.0796 321.041C70.4443 317.819 67.2121 316.105 63.801 316.681Z" fill="#FFFFB5"/>
<path d="M63.7371 112.142C60.3133 121.452 58.167 131.171 57.3621 141.057C62.1019 143.039 66.9821 142.86 70.4316 140.085C76.2189 135.43 75.7334 125.212 69.3584 117.27C67.7615 115.275 65.8707 113.549 63.7371 112.142Z" fill="#00B2FF"/>
<path d="M69.0774 110.07C65.6663 104.725 61.1182 100.645 54.6665 99.0083C52.0475 98.3433 49.4157 98.4584 46.8606 99.6093C42.0825 101.771 39.949 105.658 39.2847 110.467C38.5181 116.042 39.8468 121.222 42.4403 126.081C45.3786 131.593 49.5435 135.929 55.5608 138.32C58.4353 139.471 61.4375 139.855 64.5165 138.934C69.4095 137.463 71.9263 133.921 73.0633 129.304C74.1493 124.892 73.5488 120.582 71.8241 115.339C71.2364 114.188 70.3294 112.027 69.0774 110.07Z" fill="#FF974F"/>
<path d="M68.2597 110.543C65.1297 105.607 60.9776 101.834 55.0881 100.3C52.699 99.6732 50.2972 99.7628 47.9721 100.824C43.6284 102.794 41.6992 106.374 41.1116 110.786C40.4345 115.915 41.6609 120.697 44.0372 125.173C46.7328 130.25 50.54 134.279 56.0335 136.504C58.6652 137.565 61.3864 137.936 64.1843 137.105C68.643 135.775 70.917 132.514 71.9263 128.268C72.8972 124.202 72.3351 120.237 70.7509 115.403C70.2399 114.354 69.4095 112.347 68.2597 110.543Z" fill="#E0592C"/>
<path d="M67.6592 110.94C64.7081 106.247 60.8243 102.653 55.3308 101.169C53.0951 100.568 50.8593 100.632 48.7003 101.617C44.6632 103.459 42.8874 106.835 42.3636 111.017C41.7503 115.863 42.9257 120.391 45.1742 124.649C47.7165 129.47 51.2809 133.294 56.4167 135.43C58.8696 136.453 61.4247 136.811 64.031 136.044C68.183 134.803 70.2782 131.734 71.2108 127.731C72.0924 123.895 71.543 120.135 70.0355 115.557C69.5245 114.559 68.7452 112.666 67.6592 110.94Z" fill="#FFC44F"/>
<path d="M45.1742 124.662C47.7166 129.483 51.281 133.307 56.4167 135.443C58.8696 136.466 61.4248 136.824 64.031 136.056C68.183 134.816 70.2782 131.747 71.2109 127.744C71.4919 126.542 71.6325 125.314 71.6325 124.074L42.2869 115.314C42.5552 118.562 43.6028 121.682 45.1742 124.662Z" fill="#FFD16A"/>
<path d="M62.7407 119.751C61.3737 117.654 59.0613 116.72 56.7872 117.372C54.1555 118.114 51.907 116.273 52.0986 113.536C52.2647 111.26 54.3471 110.173 56.2762 111.413C56.8128 111.758 57.2344 112.347 57.5666 112.909C57.9626 113.574 58.397 114.035 59.1763 113.638C59.9556 113.242 59.8278 112.551 59.5084 111.886C58.7547 110.339 57.5538 109.213 55.8802 108.945C54.5132 108.715 53.4273 108.484 53.0695 106.912C52.9929 106.605 52.1497 106.489 51.6642 106.272C51.4981 106.771 51.2937 107.257 51.1788 107.768C51.1404 107.947 51.3321 108.178 51.447 108.497C51.9836 109.213 51.6642 109.789 51.0765 110.518C49.4796 112.487 49.5179 115.198 51.051 117.436C52.418 119.431 54.6793 120.224 57.0938 119.559C59.3935 118.92 61.4759 120.48 61.6164 122.987C61.6803 124.24 61.3353 125.365 60.0833 125.89C58.8952 126.388 57.771 126.043 56.8639 125.148C56.5445 124.828 56.289 124.457 56.0974 124.048C55.7396 123.345 55.1647 122.859 54.526 123.396C54.181 123.69 54.066 124.649 54.2704 125.122C55.037 126.887 56.5062 128.012 58.4097 128.153C59.6234 128.243 60.1855 128.729 60.4794 129.79C60.5433 130.007 60.5944 130.302 60.7477 130.391C61.1693 130.634 61.8336 131.082 62.038 130.928C62.3957 130.672 62.5746 130.046 62.6768 129.547C62.7279 129.291 62.5107 128.946 62.3446 128.677C61.8975 127.897 61.8975 127.322 62.5746 126.567C64.1843 124.777 64.1588 121.938 62.7407 119.751Z" fill="#E0592C"/>
<path d="M63.5838 119.47C62.2168 117.372 59.9045 116.439 57.6304 117.091C54.9986 117.833 52.7501 115.991 52.9418 113.255C53.1078 110.978 55.1903 109.891 57.1194 111.132C57.656 111.477 58.0776 112.065 58.4097 112.628C58.8058 113.293 59.2401 113.753 60.0194 113.357C60.7988 112.96 60.671 112.27 60.3516 111.605C59.5978 110.057 58.3969 108.932 56.7233 108.651C55.3563 108.421 54.2704 108.19 53.9127 106.617C53.8361 106.31 52.9929 106.195 52.5074 105.978C52.3413 106.477 52.1369 106.963 52.0219 107.474C51.9836 107.653 52.1752 107.883 52.2902 108.203C52.8268 108.919 52.5074 109.495 51.9197 110.224C50.3228 112.193 50.3611 114.904 51.8942 117.142C53.2612 119.137 55.5224 119.93 57.937 119.265C60.2366 118.626 62.319 120.199 62.4596 122.692C62.5235 123.946 62.1785 125.071 60.9265 125.595C59.7384 126.081 58.6141 125.749 57.7071 124.854C57.3877 124.534 57.1322 124.163 56.9405 123.754C56.5828 123.051 56.0079 122.565 55.3691 123.102C55.0242 123.396 54.9092 124.355 55.1136 124.828C55.8929 126.593 57.3493 127.718 59.2529 127.859C60.4666 127.949 61.0287 128.434 61.3225 129.496C61.3864 129.713 61.4375 130.007 61.5908 130.097C62.0124 130.34 62.6768 130.775 62.8812 130.634C63.2389 130.378 63.4178 129.752 63.52 129.253C63.5711 128.997 63.3539 128.652 63.1878 128.383C62.7406 127.616 62.7406 127.041 63.4177 126.273C65.0275 124.483 65.0019 121.644 63.5838 119.47Z" fill="#FFFFB5"/>
<path d="M337.633 189.129L286.927 174.626C278.98 172.35 270.689 176.954 268.415 184.921C266.601 191.277 269.156 198.08 274.726 201.648L270.995 210.089L279.3 203.618L329.405 217.941C337.339 220.268 345.656 215.716 347.981 207.774C350.306 199.832 345.758 191.507 337.825 189.18C337.748 189.167 337.684 189.141 337.633 189.129Z" fill="#091A5A"/>
<path d="M339.281 185.727L288.562 171.225C280.615 168.948 272.324 173.552 270.05 181.519C268.236 187.875 270.804 194.679 276.361 198.247L272.631 206.687L280.935 200.216L331.041 214.539C338.987 216.816 347.279 212.199 349.553 204.245C351.827 196.303 347.215 188.003 339.281 185.727Z" fill="#0E2883"/>
<path d="M339.626 196.93L284.512 179.307C284.167 179.192 283.797 179.358 283.682 179.703C283.567 180.049 283.733 180.42 284.078 180.535C284.09 180.535 284.103 180.547 284.116 180.547L339.23 198.17C339.294 198.196 339.358 198.196 339.434 198.196C339.792 198.196 340.086 197.914 340.099 197.556C340.099 197.275 339.907 197.006 339.626 196.93Z" fill="white"/>
<path d="M338.719 202.019L283.605 184.397C283.26 184.307 282.902 184.499 282.8 184.857C282.711 185.19 282.89 185.535 283.209 185.65L338.323 203.273C338.387 203.298 338.451 203.298 338.527 203.298C338.885 203.298 339.179 203.017 339.192 202.659C339.192 202.352 339 202.096 338.719 202.019Z" fill="white"/>
<path d="M245.508 146.875L216.073 138.461C211.461 137.131 206.645 139.803 205.329 144.42C204.269 148.116 205.763 152.068 208.996 154.139L206.836 159.037L211.653 155.29L240.73 163.603C245.342 164.92 250.158 162.247 251.474 157.631C252.79 153.014 250.12 148.193 245.508 146.875Z" fill="#091A5A"/>
<path d="M246.466 144.906L217.031 136.491C212.419 135.161 207.603 137.821 206.274 142.425C205.201 146.134 206.696 150.098 209.954 152.183L207.795 157.081L212.611 153.334L241.688 161.646C246.3 162.963 251.117 160.291 252.433 155.674C253.748 151.057 251.078 146.236 246.466 144.906Z" fill="#0E2883"/>
<path d="M246.671 151.403L214.693 141.172C214.489 141.146 214.285 141.287 214.259 141.492C214.234 141.658 214.323 141.811 214.464 141.888L246.441 152.119C246.479 152.132 246.517 152.132 246.556 152.132C246.773 152.119 246.926 151.94 246.913 151.722C246.901 151.594 246.811 151.454 246.671 151.403Z" fill="white"/>
<path d="M246.147 154.357L214.157 144.126C213.952 144.088 213.748 144.241 213.722 144.446C213.697 144.612 213.786 144.778 213.927 144.855L245.904 155.086C245.943 155.098 245.981 155.098 246.019 155.098C246.236 155.086 246.39 154.907 246.377 154.689C246.364 154.536 246.275 154.408 246.147 154.357Z" fill="white"/>
<path d="M267.904 307.665L274.253 348.243L291.654 348.012L296.01 307.46C296.01 307.447 268.019 307.78 267.904 307.665Z" fill="#000045"/>
<path d="M267.904 307.665L272.912 348.255L286.326 348.076L289.558 307.537C289.558 307.537 267.993 307.78 267.904 307.665Z" fill="#00B2FF"/>
<path d="M269.347 307.639L274.062 348.243L286.582 348.076L289.558 307.537C289.558 307.537 269.437 307.754 269.347 307.639Z" fill="#0E2883"/>
<path d="M270.88 255.27C266.946 256.217 265.553 264.44 267.776 273.622C269.999 282.804 274.969 289.48 278.904 288.533C282.838 287.587 284.231 279.364 282.008 270.182C279.785 261 274.815 254.311 270.88 255.27Z" fill="#ACD645"/>
<g opacity="0.2">
<path d="M277.217 284.07C268.364 281.858 268.287 262.765 268.44 257.214C266.473 260.348 266.09 266.703 267.763 273.622C269.973 282.804 274.956 289.48 278.891 288.533C280.871 288.047 282.212 285.72 282.762 282.356C281.612 283.917 279.849 284.722 277.217 284.07Z" fill="#3B814F"/>
</g>
<path d="M265.349 290.26C260.954 289.428 256.265 294.787 254.86 302.23C253.455 309.673 255.895 316.361 260.277 317.192C264.659 318.023 269.36 312.665 270.765 305.222C272.171 297.779 269.743 291.091 265.349 290.26Z" fill="#ACD645"/>
<g opacity="0.2">
<path d="M265.349 290.26C263.943 289.991 262.5 290.362 261.158 291.232C263.726 291.487 266.652 292.689 267.968 296.859C270.114 303.624 265.361 317.269 257.262 315.389C258.118 316.335 259.14 316.975 260.302 317.192C264.697 318.023 269.386 312.665 270.791 305.222C272.196 297.779 269.743 291.091 265.349 290.26Z" fill="#3B814F"/>
</g>
<path d="M313.538 267.522C309.246 263.839 299.817 267.816 292.471 276.41C285.125 285.004 282.66 294.94 286.952 298.611C291.245 302.281 300.673 298.316 308.019 289.723C315.365 281.129 317.831 271.192 313.538 267.522Z" fill="#ACD645"/>
<path d="M302.883 297.153C295.256 299.429 289.839 303.867 290.798 307.064C291.756 310.261 298.706 311.015 306.333 308.739C313.96 306.463 319.377 302.025 318.418 298.828C317.46 295.631 310.51 294.876 302.883 297.153Z" fill="#ACD645"/>
<path d="M278.073 300.068C277.984 299.544 277.881 299.033 277.766 298.521C277.537 297.485 277.255 296.462 276.898 295.465C276.553 294.454 276.106 293.47 275.556 292.549C275.416 292.319 275.275 292.088 275.122 291.858C274.969 291.628 274.815 291.411 274.624 291.206C274.279 290.771 273.883 290.375 273.461 290.029C272.592 289.301 271.545 288.827 270.421 288.636C269.871 288.546 269.309 288.52 268.747 288.559C268.479 288.572 268.21 288.61 267.929 288.648C267.789 288.661 267.661 288.687 267.52 288.712L267.316 288.751L267.112 288.802C266.562 288.942 266.039 289.147 265.54 289.403C265.042 289.671 264.582 289.991 264.173 290.362C263.356 291.104 262.679 291.986 262.18 292.971C261.682 293.93 261.286 294.927 260.992 295.963C260.852 296.475 260.711 296.999 260.609 297.511C260.507 298.022 260.404 298.559 260.328 299.084C260.021 301.168 259.893 303.278 259.945 305.388C259.97 306.437 260.021 307.486 260.098 308.534C260.175 309.583 260.302 310.619 260.468 311.655C260.353 309.557 260.328 307.473 260.417 305.388C260.456 304.353 260.532 303.304 260.634 302.281C260.686 301.769 260.749 301.245 260.813 300.733C260.877 300.222 260.967 299.71 261.056 299.199C261.248 298.189 261.49 297.191 261.797 296.206C262.091 295.234 262.487 294.301 262.985 293.406C263.228 292.971 263.496 292.549 263.803 292.152C264.097 291.756 264.442 291.398 264.812 291.078C265.54 290.426 266.409 289.966 267.354 289.735L267.533 289.684L267.712 289.646C267.827 289.62 267.955 289.595 268.07 289.582C268.313 289.556 268.568 289.518 268.811 289.505C269.296 289.467 269.782 289.48 270.267 289.556C271.225 289.71 272.12 290.119 272.873 290.72C273.257 291.027 273.614 291.372 273.934 291.743C274.1 291.922 274.24 292.14 274.394 292.331C274.547 292.523 274.675 292.741 274.815 292.958C274.956 293.175 275.084 293.393 275.199 293.61C275.314 293.828 275.441 294.058 275.544 294.288C275.646 294.518 275.761 294.748 275.863 294.979L276.157 295.695C276.898 297.613 277.409 299.634 277.818 301.68C278.226 303.726 278.507 305.798 278.763 307.869C278.725 305.772 278.571 303.675 278.29 301.59C278.239 301.117 278.175 300.593 278.073 300.068Z" fill="#3B814F"/>
<path d="M280.82 293.418L280.718 291.833C280.705 291.564 280.692 291.308 280.667 291.04L280.59 290.247L280.449 288.661C280.398 288.137 280.322 287.613 280.271 287.075L280.181 286.283L280.066 285.502C279.989 284.978 279.926 284.454 279.836 283.929L279.581 282.356C279.21 280.272 278.789 278.187 278.265 276.128C277.741 274.07 277.153 272.036 276.463 270.028C275.786 268.021 275.007 266.038 274.125 264.107L273.793 263.391L273.448 262.675C273.333 262.432 273.206 262.202 273.091 261.959C272.976 261.716 272.848 261.486 272.72 261.256C272.222 260.322 271.685 259.414 271.085 258.532C271.34 258.992 271.583 259.465 271.813 259.938C271.928 260.181 272.043 260.411 272.158 260.654C272.273 260.897 272.375 261.128 272.49 261.371C272.912 262.33 273.333 263.302 273.704 264.286C273.896 264.772 274.074 265.271 274.266 265.757C274.458 266.243 274.624 266.742 274.79 267.24C274.956 267.739 275.135 268.238 275.288 268.737C275.441 269.235 275.607 269.734 275.761 270.246C276.974 274.274 277.933 278.366 278.635 282.51C279.006 284.582 279.287 286.666 279.542 288.751C279.785 290.835 279.989 292.933 280.13 295.03C280.437 299.224 280.539 303.445 280.552 307.665C280.948 303.445 281.063 299.212 280.897 294.979C280.858 294.48 280.845 293.956 280.82 293.418Z" fill="#3B814F"/>
<path d="M307.253 270.834C307.01 270.936 306.78 271.039 306.55 271.154L305.847 271.486L305.157 271.844C303.33 272.816 301.606 273.967 299.996 275.284C299.191 275.937 298.412 276.627 297.671 277.356C296.93 278.085 296.214 278.827 295.525 279.607C294.158 281.167 292.906 282.83 291.756 284.556C290.619 286.283 289.584 288.086 288.651 289.927C287.719 291.769 286.888 293.661 286.147 295.592C285.406 297.511 284.755 299.48 284.205 301.462C283.643 303.445 283.196 305.452 282.877 307.486C283.388 305.491 283.988 303.534 284.653 301.603C284.985 300.631 285.33 299.672 285.7 298.726C286.071 297.779 286.441 296.82 286.85 295.887C287.259 294.953 287.668 294.02 288.102 293.099C288.536 292.178 288.996 291.27 289.469 290.362C290.414 288.559 291.449 286.807 292.573 285.106C293.136 284.262 293.723 283.431 294.324 282.612C294.924 281.794 295.576 281.014 296.227 280.234C297.543 278.686 298.961 277.228 300.482 275.898C301.235 275.22 302.04 274.594 302.858 273.993C303.675 273.392 304.519 272.829 305.387 272.292C306.256 271.755 307.15 271.282 308.07 270.821L308.76 270.489C308.99 270.374 309.233 270.284 309.463 270.182C309.923 269.964 310.408 269.785 310.881 269.594C309.884 269.875 308.913 270.195 307.955 270.578C307.725 270.629 307.495 270.732 307.253 270.834Z" fill="#3B814F"/>
<path d="M311.992 299.173C310.6 299.263 309.22 299.403 307.84 299.595C306.461 299.8 305.094 300.056 303.727 300.363C303.049 300.516 302.372 300.669 301.695 300.849C301.018 301.028 300.354 301.207 299.677 301.386C297.007 302.153 294.375 303.061 291.781 304.097C289.201 305.133 286.671 306.284 284.244 307.626C286.837 306.642 289.443 305.708 292.05 304.813C294.656 303.918 297.288 303.087 299.945 302.319C300.609 302.14 301.274 301.948 301.938 301.769C302.602 301.59 303.267 301.424 303.931 301.245C305.272 300.912 306.614 300.618 307.955 300.337C309.309 300.068 310.664 299.825 312.031 299.634C313.398 299.442 314.765 299.301 316.157 299.173C314.777 299.109 313.385 299.096 311.992 299.173Z" fill="#3B814F"/>
<g opacity="0.2">
<path d="M313.538 267.522C313.193 267.228 312.81 266.985 312.401 266.78C316.502 275.617 307.636 293.009 293.889 295.004C288.076 295.848 285.687 294.007 284.946 291.398C284.55 294.505 285.164 297.089 286.939 298.598C291.232 302.281 300.66 298.304 308.006 289.71C315.352 281.116 317.831 271.192 313.538 267.522Z" fill="#3B814F"/>
</g>
<g opacity="0.2">
<path d="M315.621 296.449C317.971 300.439 311.877 305.568 301.67 306.872C294.17 307.818 292.637 304.954 292.497 302.78C291.066 304.263 290.402 305.772 290.785 307.064C291.743 310.261 298.693 311.015 306.32 308.739C313.947 306.463 319.364 302.025 318.406 298.828C318.099 297.754 317.103 296.961 315.621 296.449Z" fill="#3B814F"/>
</g>
</g>
<defs>
<clipPath id="clip0_528_4236">
<rect width="379" height="399" fill="white"/>
</clipPath>
</defs>
</svg>
